<svg width="23" height="22" fill="none" xmlns="http://www.w3.org/2000/svg"><path fill-rule="evenodd" clip-rule="evenodd" d="M.206 8.594a.7.7 0 00.994 0l3.231-3.231 3.232 3.231a.7.7 0 00.994 0 .703.703 0 000-.994L5.425 4.37l3.066-3.066A.703.703 0 107.497.31L4.43 3.375 1.366.309a.703.703 0 10-.994.994l3.065 3.066L.207 7.6a.703.703 0 00-.001.994zm16.069 12.707l-.883-.684 6.032-7.728.883.684-6.032 7.728zm4.835-.119c-.58.01-1.038-.134-1.371-.434-.334-.308-.506-.729-.515-1.264l-.002-.08c-.01-.542.148-.97.47-1.28.324-.32.776-.484 1.356-.494.566-.01 1.02.139 1.36.446.342.3.518.72.527 1.263l.002.08c.009.535-.148.962-.471 1.281-.323.311-.775.472-1.356.482zm-.016-.94c.221-.003.392-.075.512-.215a.75.75 0 00.185-.542l-.003-.183a.752.752 0 00-.204-.535c-.125-.136-.298-.201-.52-.197a.688.688 0 00-.523.215.78.78 0 00-.174.542l.003.183a.78.78 0 00.193.535c.132.136.31.201.53.198zM16.65 16.56c-.58.01-1.038-.134-1.372-.434-.334-.308-.506-.729-.515-1.264l-.001-.08c-.01-.542.147-.97.47-1.28.323-.32.775-.484 1.356-.494.565-.01 1.019.139 1.36.446.342.3.517.72.527 1.263l.001.08c.01.535-.148.962-.47 1.281-.324.311-.776.472-1.356.482zm-.017-.94c.222-.003.393-.075.512-.215a.75.75 0 00.186-.542l-.003-.183a.752.752 0 00-.205-.535c-.124-.136-.297-.201-.519-.197-.221.003-.396.075-.523.215a.78.78 0 00-.174.542l.003.183a.78.78 0 00.193.536c.132.135.309.2.53.197zM18.55 2.606l-14 16 .903.79 14-16-.904-.79z" fill="#fff"/></svg>