<svg width="24" height="23" fill="none" xmlns="http://www.w3.org/2000/svg"><path d="M22.997 5.44V3.748c-.056-.583-.444-.971-.998-1.028h-3.357v-.75a.983.983 0 00-.97-.97H6.027a.983.983 0 00-.97.97v.75H2.005c-.555.029-.943.445-1 1.028V5.44c-.027.444-.166 4.742 4.438 5.464a6.798 6.798 0 004.494 4.242v2.745l-3.662 1.746s-.028 0-.028.028c-.527.306-.804.75-.804 1.248v.583c.057.555.444.914 1.027.914h10.787c.583 0 1-.36 1.027-.914v-.583c0-.498-.277-.942-.803-1.248l-.028-.028-3.606-1.72V15.12c2.024-.61 3.662-2.19 4.41-4.188 1.553-.195 2.744-.775 3.576-1.746 1.276-1.528 1.163-3.469 1.163-3.746zM5.167 9.823c-3.41-.804-3.161-4.132-3.133-4.299V3.748h3.022v4.88c0 .196 0 .36.029.556v.056c.025.195.054.36.082.583 0-.028 0-.028 0 0zm12.091 11.064v.473H6.443v-.473c0-.138.167-.277.277-.333l3.772-1.775h2.717l3.772 1.775c.11.056.277.195.277.334zm-4.465-5.464v2.33h-1.83v-2.33h1.83zm-.942-1.024a5.768 5.768 0 01-5.518-4.078c-.029-.139-.083-.277-.11-.416-.057-.249-.083-.526-.111-.775v-.083c0-.138-.029-.249-.029-.387V2.03h11.51v6.573c0 .139 0 .25-.029.388v.082c0 .11-.028.25-.028.36v.028c-.029.139-.057.249-.082.388 0 .028 0 .056-.029.082-.028.11-.056.22-.082.334-.696 2.385-2.914 4.134-5.492 4.134zm9.18-5.852c-.583.693-1.415 1.137-2.496 1.33v-.028c.028-.196.056-.36.082-.555v-.057c.028-.195.028-.387.028-.582V3.75h3.328v1.777c0 .026.139 1.715-.942 3.02z" fill="#fff"/><path d="M5.167 9.823c-3.41-.804-3.161-4.132-3.133-4.299V3.748h3.022v4.88c0 .196 0 .36.029.556v.056c.025.195.054.36.082.583zm0 0c0-.028 0-.028 0 0zm17.83-4.383V3.748c-.056-.583-.444-.971-.998-1.028h-3.357v-.75a.983.983 0 00-.97-.97H6.027a.983.983 0 00-.97.97v.75H2.005c-.555.029-.943.445-1 1.028V5.44c-.027.444-.166 4.742 4.438 5.464a6.798 6.798 0 004.494 4.242v2.745l-3.662 1.746s-.028 0-.028.028c-.527.306-.804.75-.804 1.248v.583c.057.555.444.914 1.027.914h10.787c.583 0 1-.36 1.027-.914v-.583c0-.498-.277-.942-.803-1.248l-.028-.028-3.606-1.72V15.12c2.024-.61 3.662-2.19 4.41-4.188 1.553-.195 2.744-.775 3.576-1.746 1.276-1.528 1.163-3.469 1.163-3.746zm-5.739 15.447v.473H6.443v-.473c0-.138.167-.277.277-.333l3.772-1.775h2.717l3.772 1.775c.11.056.277.195.277.334zm-4.465-5.464v2.33h-1.83v-2.33h1.83zm-.942-1.024a5.768 5.768 0 01-5.518-4.078c-.029-.139-.083-.277-.11-.416-.057-.249-.083-.526-.111-.775v-.083c0-.138-.029-.249-.029-.387V2.03h11.51v6.573c0 .139 0 .25-.029.388v.082c0 .11-.028.25-.028.36v.028c-.029.139-.057.249-.082.388 0 .028 0 .056-.029.082-.028.11-.056.22-.082.334-.696 2.385-2.914 4.134-5.492 4.134zm9.18-5.852c-.583.693-1.415 1.137-2.496 1.33v-.028c.028-.196.056-.36.082-.555v-.057c.028-.195.028-.387.028-.582V3.75h3.328v1.777c0 .026.139 1.715-.942 3.02z" stroke="#fff" stroke-width=".5"/></svg>