<?xml version="1.0" encoding="utf-8"?><svg viewBox="0 0 24 28" xmlns="http://www.w3.org/2000/svg" xmlns:xlink="http://www.w3.org/1999/xlink"><style>:root>svg{display:none}:root>svg:target{display:block}</style><svg fill="none" viewBox="0 0 22 22" id="icon-arrow-back" xmlns="http://www.w3.org/2000/svg"><g clip-path="url(#aclip0_179_2216)" fill="#fff"><path d="M11.033 3.38l-1.87-2.015L.856 9.07a2.626 2.626 0 00.008 3.887l8.29 7.678 1.867-2.017-8.214-7.609 8.226-7.629z"/><path d="M22 9.623H2.756v2.75H22v-2.75z"/></g><defs><clipPath id="aclip0_179_2216"><path fill="#fff" d="M0 0h22v22H0z"/></clipPath></defs></svg><svg fill="none" viewBox="0 0 24 28" id="icon-arrow-prev" xmlns="http://www.w3.org/2000/svg"><path d="M15.41 19.1L10.83 14l4.58-5.1L14 7.333 8 14l6 6.667 1.41-1.567z" fill="#fff"/></svg><svg fill="none" viewBox="0 0 20 22" id="icon-calendar" xmlns="http://www.w3.org/2000/svg"><path d="M1.093 8.404h17.824M14.442 12.31h.01M10.005 12.31h.009M5.558 12.31h.01M14.442 16.196h.01M10.005 16.196h.009M5.558 16.196h.01M14.044 1v3.29M5.966 1v3.29" stroke="#694A04" stroke-width="2" stroke-linecap="round" stroke-linejoin="round"/><path clip-rule="evenodd" d="M14.238 2.58H5.771C2.834 2.58 1 4.214 1 7.221v9.05C1 19.326 2.834 21 5.771 21h8.458C17.175 21 19 19.355 19 16.348V7.222c.01-3.007-1.816-4.643-4.762-4.643z" stroke="#694A04" stroke-width="2" stroke-linecap="round" stroke-linejoin="round"/></svg><svg fill="none" viewBox="0 0 12 8" id="icon-caret" xmlns="http://www.w3.org/2000/svg"><path d="M1.41.59L6 5.17 10.59.59 12 2 6 8 0 2 1.41.59z" fill="#694A04"/></svg><svg fill="none" viewBox="0 0 22 22" id="icon-exit" xmlns="http://www.w3.org/2000/svg"><g clip-path="url(#eclip0_179_3451)" fill="#fff"><path d="M11.86 0h-1.72v11.86h1.72V0z"/><path d="M18.444 4.029a10.462 10.462 0 00-4.866-2.767v1.787c3.603 1.105 6.23 4.463 6.23 8.424 0 4.857-3.95 8.808-8.808 8.808-4.857 0-8.809-3.951-8.809-8.808 0-3.96 2.628-7.319 6.23-8.424V1.262a10.462 10.462 0 00-4.865 2.767 10.458 10.458 0 00-3.083 7.444c0 2.811 1.095 5.455 3.083 7.444A10.459 10.459 0 0011 22c2.812 0 5.456-1.095 7.444-3.083a10.459 10.459 0 003.083-7.444c0-2.812-1.095-5.456-3.083-7.444z"/></g><defs><clipPath id="eclip0_179_3451"><path fill="#fff" d="M0 0h22v22H0z"/></clipPath></defs></svg><svg fill="none" viewBox="0 0 24 18" id="icon-eye" xmlns="http://www.w3.org/2000/svg"><path d="M12 5.727A3.275 3.275 0 008.727 9 3.275 3.275 0 0012 12.273 3.275 3.275 0 0015.273 9 3.275 3.275 0 0012 5.727z" fill="#694A04"/><path d="M12 .818C6.545.818 1.887 4.211 0 9c1.887 4.79 6.545 8.182 12 8.182 5.46 0 10.113-3.393 12-8.182C22.113 4.21 17.46.818 12 .818zm0 13.637A5.457 5.457 0 016.545 9 5.457 5.457 0 0112 3.545 5.457 5.457 0 0117.455 9 5.457 5.457 0 0112 14.455z" fill="#694A04"/></svg><svg fill="none" viewBox="0 0 22 22" id="icon-settings-01" xmlns="http://www.w3.org/2000/svg"><path d="M18.334 1.833H3.667a1.839 1.839 0 00-1.833 1.834v16.5L5.5 16.5h12.834a1.839 1.839 0 001.833-1.833v-11a1.839 1.839 0 00-1.834-1.834zm0 12.834H5.5L3.667 16.5V3.667h14.666v11z" fill="#fff"/></svg><svg fill="none" viewBox="0 0 22 22" id="icon-settings-02" xmlns="http://www.w3.org/2000/svg"><path d="M19.422 2.922H2.578A2.581 2.581 0 000 5.5v11a2.581 2.581 0 002.578 2.578h16.844A2.581 2.581 0 0022 16.5v-11a2.581 2.581 0 00-2.578-2.578zm.86 13.578a.86.86 0 01-.86.86H2.578a.86.86 0 01-.86-.86V9.195h18.563V16.5zm0-9.883H1.718V5.5a.86.86 0 01.86-.86h16.843a.86.86 0 01.86.86v1.117z" fill="#fff"/><path d="M14.266 10.484H2.922v1.72h11.344v-1.72z" fill="#fff"/></svg><svg fill="none" viewBox="0 0 22 22" id="icon-settings-03" xmlns="http://www.w3.org/2000/svg"><path d="M22 12.45v-2.9l-2.93-.78a8.278 8.278 0 00-.79-1.898l1.498-2.603-2.047-2.047-2.603 1.498a8.276 8.276 0 00-1.899-.79L12.45 0H9.55l-.78 2.93a8.28 8.28 0 00-1.898.79L4.269 2.222 2.222 4.269 3.72 6.872a8.274 8.274 0 00-.79 1.899L0 9.55v2.899l2.93.78c.183.66.448 1.296.79 1.898l-1.498 2.603 2.047 2.047 2.603-1.498a8.276 8.276 0 001.899.79L9.55 22h2.899l.78-2.93a8.281 8.281 0 001.898-.79l2.603 1.498 2.047-2.047-1.498-2.603a8.275 8.275 0 00.79-1.899l2.93-.78zm-4.38-.614l-.107.52a6.585 6.585 0 01-.951 2.287l-.29.442 1.36 2.362-.185.184-2.362-1.36-.442.29a6.583 6.583 0 01-2.287.952l-.52.108-.708 2.66h-.256l-.708-2.66-.52-.108a6.586 6.586 0 01-2.287-.951l-.442-.29-2.362 1.36-.184-.185 1.36-2.362-.29-.442a6.584 6.584 0 01-.952-2.287l-.108-.52-2.66-.708v-.256l2.66-.708.108-.52a6.584 6.584 0 01.951-2.287l.29-.442-1.36-2.362.185-.184 2.362 1.36.442-.291a6.585 6.585 0 012.287-.951l.52-.108.708-2.66h.256l.708 2.66.52.108a6.585 6.585 0 012.287.951l.442.29 2.362-1.36.184.185-1.36 2.362.29.442a6.58 6.58 0 01.952 2.287l.108.52 2.66.708v.256l-2.66.708z" fill="#fff"/><path d="M11 6.016A4.99 4.99 0 006.016 11 4.99 4.99 0 0011 15.984 4.99 4.99 0 0015.984 11 4.99 4.99 0 0011 6.016zm0 8.25A3.27 3.27 0 017.734 11 3.27 3.27 0 0111 7.734 3.27 3.27 0 0114.266 11 3.27 3.27 0 0111 14.266z" fill="#fff"/></svg><svg fill="none" viewBox="0 0 22 22" id="icon-settings-04" xmlns="http://www.w3.org/2000/svg"><g clip-path="url(#jclip0_179_3485)"><path d="M12.739 14.463a8.164 8.164 0 00-1.714-.915 4.373 4.373 0 001.422-2.885 6.402 6.402 0 014.507-1.83c1.33 0 2.608.401 3.695 1.159a.859.859 0 10.983-1.41 8.17 8.17 0 00-1.714-.914 4.372 4.372 0 001.437-3.243A4.387 4.387 0 0016.973.043a4.387 4.387 0 00-4.382 4.382c0 1.279.55 2.431 1.427 3.233a8.148 8.148 0 00-1.871 1.016 4.389 4.389 0 00-4.067-2.75 4.387 4.387 0 00-4.383 4.382c0 1.275.548 2.424 1.42 3.226-2.331.873-4.221 2.748-4.99 5.14a2.553 2.553 0 00.37 2.309c.49.673 1.25 1.06 2.083 1.06h7.476a.86.86 0 000-1.72H2.58a.85.85 0 01-.694-.353.852.852 0 01-.124-.77c.85-2.64 3.44-4.484 6.299-4.484 1.33 0 2.608.4 3.695 1.159a.86.86 0 10.983-1.41zm4.234-12.701a2.667 2.667 0 012.664 2.663 2.667 2.667 0 01-2.664 2.664 2.667 2.667 0 01-2.664-2.664 2.667 2.667 0 012.664-2.663zM8.08 7.642a2.667 2.667 0 012.663 2.664A2.667 2.667 0 018.08 12.97a2.667 2.667 0 01-2.664-2.664A2.667 2.667 0 018.08 7.642zM22 17.96a.86.86 0 01-.86.859h-2.362v2.363a.86.86 0 11-1.719 0v-2.363h-2.363a.86.86 0 010-1.719h2.363v-2.363a.86.86 0 011.719 0V17.1h2.363a.86.86 0 01.859.86z" fill="#fff"/></g><defs><clipPath id="jclip0_179_3485"><path fill="#fff" d="M0 0h22v22H0z"/></clipPath></defs></svg><svg fill="none" viewBox="0 0 20 24" id="icon-sidebar-01" xmlns="http://www.w3.org/2000/svg"><path fill-rule="evenodd" clip-rule="evenodd" d="M14.024 6.021l-1.38 1.381a.644.644 0 10.91.912l.281-.28v.514a2.81 2.81 0 01-2.807 2.807 2.81 2.81 0 01-2.807-2.807 2.81 2.81 0 012.807-2.807.645.645 0 000-1.29 4.101 4.101 0 00-4.096 4.097 4.101 4.101 0 004.096 4.097 4.1 4.1 0 004.096-4.097v-.515l.28.28a.645.645 0 00.913-.911l-1.381-1.38a.645.645 0 00-.912 0z" fill="#fff" stroke="#fff" stroke-width=".3"/><path fill-rule="evenodd" clip-rule="evenodd" d="M19.267 10.008C19.267 1.789 12.05 1 10.827 1 6.16 1 3.136 5.054 3.136 8.214v1.149l-1.998 2.569a1.996 1.996 0 00.842 3.08l.601.24.974 2.726a3.413 3.413 0 003.207 2.26h1.003l.568 2.274c.072.287.33.488.625.488h8.285a.645.645 0 00.62-.822l-1.317-4.607 2.137-4.81a6.738 6.738 0 00.585-2.753zm-1.762 2.23l-2.233 5.023a.645.645 0 00-.03.439l1.145 4.01H9.461l-.569-2.272a.644.644 0 00-.625-.488H6.761a2.121 2.121 0 01-1.993-1.405l-1.072-3a.644.644 0 00-.368-.382l-.87-.348a.71.71 0 01-.304-1.092l2.044-2.628c.146-.187.226-.421.226-.658V8.214c0-1.731 1.834-5.925 6.404-5.925 1.013 0 7.15.616 7.15 7.719 0 .773-.16 1.523-.473 2.23z" fill="#fff" stroke="#fff" stroke-width=".3"/></svg><svg fill="none" viewBox="0 0 20 24" id="icon-sidebar-02" xmlns="http://www.w3.org/2000/svg"><path d="M12.47 7.228L10.307 9.39l-.977-.977a.78.78 0 10-1.103 1.102l1.53 1.529a.777.777 0 001.102 0l2.712-2.712a.78.78 0 00-1.103-1.103z" fill="#fff" stroke="#fff" stroke-width=".3"/><path d="M10.654 1.397c-4.727 0-8.572 3.845-8.572 8.572v1.126l-1.28 4.231c-.1.332.08.683.406.796l2.18.756v3.03c0 .355.29.644.645.644H7.31v2.2c0 .356.289.645.645.645h7.843a.645.645 0 00.645-.645V16.29a8.563 8.563 0 002.783-6.321c0-4.727-3.846-8.572-8.572-8.572zm4.726 14.112a.645.645 0 00-.226.49v6.109H8.6v-2.2a.644.644 0 00-.645-.645H4.678v-2.844a.644.644 0 00-.433-.61l-2.03-.702 1.128-3.73a.645.645 0 00.028-.187V9.969c0-4.016 3.267-7.283 7.283-7.283s7.283 3.267 7.283 7.283a7.277 7.277 0 01-2.557 5.54z" fill="#fff" stroke="#fff" stroke-width=".3"/></svg><svg fill="none" viewBox="0 0 20 21" id="icon-sidebar-03" xmlns="http://www.w3.org/2000/svg"><g clip-path="url(#mclip0_179_5826)" fill="#fff"><path d="M3.333 18.73H1.667V2.063h1.666V.397H0v20h3.333V18.73zM16.667 2.063h1.667V18.73h-1.667v1.667H20v-20h-3.333v1.666zM5 17.063h10V13.73h-1.667v1.667H7.277l4.231-5-4.23-5h6.055v1.666H15V3.73H5v1.555l4.325 5.112L5 15.508v1.555z"/></g><defs><clipPath id="mclip0_179_5826"><path fill="#fff" transform="translate(0 .397)" d="M0 0h20v20H0z"/></clipPath></defs></svg><svg fill="none" viewBox="0 0 23 22" id="icon-sidebar-04" xmlns="http://www.w3.org/2000/svg"><path fill-rule="evenodd" clip-rule="evenodd" d="M.206 8.594a.7.7 0 00.994 0l3.231-3.231 3.232 3.231a.7.7 0 00.994 0 .703.703 0 000-.994L5.425 4.37l3.066-3.066A.703.703 0 107.497.31L4.43 3.375 1.366.309a.703.703 0 10-.994.994l3.065 3.066L.207 7.6a.703.703 0 00-.001.994zm16.069 12.707l-.883-.684 6.032-7.728.883.684-6.032 7.728zm4.835-.119c-.58.01-1.038-.134-1.371-.434-.334-.308-.506-.729-.515-1.264l-.002-.08c-.01-.542.148-.97.47-1.28.324-.32.776-.484 1.356-.494.566-.01 1.02.139 1.36.446.342.3.518.72.527 1.263l.002.08c.009.535-.148.962-.471 1.281-.323.311-.775.472-1.356.482zm-.016-.94c.221-.003.392-.075.512-.215.127-.14.19-.32.185-.542l-.003-.183a.752.752 0 00-.204-.535c-.125-.136-.298-.201-.52-.197-.22.003-.395.075-.523.215a.78.78 0 00-.174.542l.003.183a.78.78 0 00.193.535c.132.136.31.201.53.198zM16.65 16.56c-.58.01-1.038-.134-1.372-.434-.334-.308-.506-.729-.515-1.264l-.001-.08c-.01-.542.147-.97.47-1.28.323-.32.775-.484 1.356-.494.565-.01 1.019.139 1.36.446.342.3.517.72.527 1.263l.001.08c.01.535-.148.962-.47 1.281-.324.311-.776.472-1.356.482zm-.017-.94c.222-.003.393-.075.512-.215.128-.14.19-.32.186-.542l-.003-.183a.752.752 0 00-.205-.535c-.124-.136-.297-.201-.519-.197-.221.003-.396.075-.523.215a.78.78 0 00-.174.542l.003.183a.78.78 0 00.193.536c.132.135.309.2.53.197zM18.55 2.606l-14 16 .903.79 14-16-.904-.79z" fill="#fff"/></svg><svg fill="none" viewBox="0 0 22 22" id="icon-sidebar-05" xmlns="http://www.w3.org/2000/svg"><path d="M1.934 6.531H0V8.25h1.934V6.531zM2.615 10.726l-1.824.918.773 1.535 1.824-.918-.773-1.535zM1.565 1.492L.792 3.027l1.78.897.774-1.535-1.78-.897zM22 6.531h-1.934V8.25H22V6.531zM19.385 10.726l-.773 1.535 1.824.919.773-1.535-1.824-.919zM20.435 1.492l-1.78.897.772 1.535 1.781-.897-.773-1.535zM18.39 7.342C18.364 3.289 15.06 0 11 0 6.941 0 3.636 3.289 3.61 7.342v.049c.013 2.951 1.254 4.584 2.35 6.027.917 1.206 1.64 2.158 1.64 3.744v2.26A2.581 2.581 0 0010.18 22h1.642a2.581 2.581 0 002.578-2.578v-2.26c0-1.586.724-2.538 1.64-3.744 1.097-1.443 2.338-3.076 2.351-6.027v-.05zm-5.71 12.08a.86.86 0 01-.859.86H10.18a.86.86 0 01-.86-.86v-1.676h3.361v1.676zm1.991-7.044c-.795 1.046-1.612 2.121-1.89 3.65H9.22c-.279-1.528-1.096-2.604-1.891-3.65-1.025-1.35-1.994-2.623-2-5.01A5.678 5.678 0 0111 1.719c3.12 0 5.66 2.533 5.672 5.65-.008 2.387-.976 3.66-2 5.01z" fill="#fff"/></svg><svg fill="none" viewBox="0 0 24 23" id="icon-sidebar-06" xmlns="http://www.w3.org/2000/svg"><path d="M22.997 5.44V3.748c-.056-.583-.444-.971-.998-1.028H18.642v-.75a.983.983 0 00-.97-.97H6.027a.983.983 0 00-.97.97v.75H2.005c-.555.029-.943.445-1 1.028V5.44c-.027.444-.166 4.742 4.438 5.464a6.798 6.798 0 004.494 4.242v2.745l-3.662 1.746s-.028 0-.028.028c-.527.306-.804.75-.804 1.248V21.496c.057.555.444.914 1.027.914h10.787c.583 0 1-.36 1.027-.914V20.913c0-.498-.277-.942-.803-1.248l-.028-.028-3.606-1.72V15.12c2.024-.61 3.662-2.19 4.41-4.188 1.553-.195 2.744-.775 3.576-1.746 1.276-1.528 1.163-3.469 1.163-3.746zM5.167 9.823c-3.41-.804-3.161-4.132-3.133-4.299v-1.72-.056H5.056v4.88c0 .196 0 .36.029.556v.056c.025.195.054.36.082.583 0-.028 0-.028 0 0zm12.091 11.064v.473H6.443v-.473c0-.138.167-.277.277-.333l3.772-1.775h2.717l3.772 1.775c.11.056.277.195.277.334zm-4.465-5.464v2.33h-1.83v-2.33h1.83zm-.942-1.024a5.768 5.768 0 01-5.518-4.078c-.029-.139-.083-.277-.11-.416-.057-.249-.083-.526-.111-.775v-.083c0-.138-.029-.249-.029-.387V2.03h11.51v6.573c0 .139 0 .25-.029.388v.082c0 .11-.028.25-.028.36v.028c-.029.139-.057.249-.082.388 0 .028 0 .056-.029.082-.028.11-.056.22-.082.334-.696 2.385-2.914 4.134-5.492 4.134zm9.18-5.852c-.583.693-1.415 1.137-2.496 1.33v-.028c.028-.196.056-.36.082-.555v-.057c.028-.195.028-.387.028-.582V3.75h3.328v1.777c0 .026.139 1.715-.942 3.02z" fill="#fff"/><path d="M5.167 9.823c-3.41-.804-3.161-4.132-3.133-4.299v-1.72-.056H5.056v4.88c0 .196 0 .36.029.556v.056c.025.195.054.36.082.583zm0 0c0-.028 0-.028 0 0zm17.83-4.383V3.748c-.056-.583-.444-.971-.998-1.028H18.642v-.75a.983.983 0 00-.97-.97H6.027a.983.983 0 00-.97.97v.75H2.005c-.555.029-.943.445-1 1.028V5.44c-.027.444-.166 4.742 4.438 5.464a6.798 6.798 0 004.494 4.242v2.745l-3.662 1.746s-.028 0-.028.028c-.527.306-.804.75-.804 1.248V21.496c.057.555.444.914 1.027.914h10.787c.583 0 1-.36 1.027-.914V20.913c0-.498-.277-.942-.803-1.248l-.028-.028-3.606-1.72V15.12c2.024-.61 3.662-2.19 4.41-4.188 1.553-.195 2.744-.775 3.576-1.746 1.276-1.528 1.163-3.469 1.163-3.746zm-5.739 15.447v.473H6.443v-.473c0-.138.167-.277.277-.333l3.772-1.775h2.717l3.772 1.775c.11.056.277.195.277.334zm-4.465-5.464v2.33h-1.83v-2.33h1.83zm-.942-1.024a5.768 5.768 0 01-5.518-4.078c-.029-.139-.083-.277-.11-.416-.057-.249-.083-.526-.111-.775v-.083c0-.138-.029-.249-.029-.387V2.03h11.51v6.573c0 .139 0 .25-.029.388v.082c0 .11-.028.25-.028.36v.028c-.029.139-.057.249-.082.388 0 .028 0 .056-.029.082-.028.11-.056.22-.082.334-.696 2.385-2.914 4.134-5.492 4.134zm9.18-5.852c-.583.693-1.415 1.137-2.496 1.33v-.028c.028-.196.056-.36.082-.555v-.057c.028-.195.028-.387.028-.582V3.75h3.328v1.777c0 .026.139 1.715-.942 3.02z" stroke="#fff" stroke-width=".5"/></svg><svg fill="none" viewBox="0 0 22 22" id="icon-sidebar-07" xmlns="http://www.w3.org/2000/svg"><path d="M19.852 4.813h-2.063a2.15 2.15 0 00-2.148 2.148v12.89A2.15 2.15 0 0017.789 22h2.063A2.15 2.15 0 0022 19.852V6.96a2.15 2.15 0 00-2.148-2.149zm.43 15.039a.43.43 0 01-.43.43h-2.063a.43.43 0 01-.43-.43V6.96a.43.43 0 01.43-.43h2.063a.43.43 0 01.43.43v12.89zM4.21 11.344H2.149A2.15 2.15 0 000 13.492v6.36A2.15 2.15 0 002.148 22h2.063a2.15 2.15 0 002.148-2.148v-6.36a2.15 2.15 0 00-2.148-2.148zm.43 8.508a.43.43 0 01-.43.43H2.149a.43.43 0 01-.43-.43v-6.36a.43.43 0 01.43-.43h2.063a.43.43 0 01.43.43v6.36zM12.031 0H9.97A2.15 2.15 0 007.82 2.148v17.704A2.15 2.15 0 009.97 22h2.062a2.15 2.15 0 002.149-2.148V2.148A2.15 2.15 0 0012.03 0zm.43 19.852a.43.43 0 01-.43.43H9.97a.43.43 0 01-.43-.43V2.148a.43.43 0 01.43-.43h2.062a.43.43 0 01.43.43v17.704z" fill="#fff"/></svg></svg>